<svg id="visual" viewBox="0 0 960 150" width="960" height="150" xmlns="http://www.w3.org/2000/svg" xmlns:xlink="http://www.w3.org/1999/xlink" version="1.1"><rect x="0" y="0" width="960" height="150" fill="#293241"></rect><path d="M0 63L14.5 60.8C29 58.7 58 54.3 87.2 58.2C116.3 62 145.7 74 174.8 80.3C204 86.7 233 87.3 262 82.8C291 78.3 320 68.7 349 65.8C378 63 407 67 436.2 69.2C465.3 71.3 494.7 71.7 523.8 71.7C553 71.7 582 71.3 611 67.7C640 64 669 57 698 56.5C727 56 756 62 785.2 65.5C814.3 69 843.7 70 872.8 67.5C902 65 931 59 945.5 56L960 53L960 151L945.5 151C931 151 902 151 872.8 151C843.7 151 814.3 151 785.2 151C756 151 727 151 698 151C669 151 640 151 611 151C582 151 553 151 523.8 151C494.7 151 465.3 151 436.2 151C407 151 378 151 349 151C320 151 291 151 262 151C233 151 204 151 174.8 151C145.7 151 116.3 151 87.2 151C58 151 29 151 14.5 151L0 151Z" fill="#f4aea9"></path><path d="M0 88L14.5 88.3C29 88.7 58 89.3 87.2 90C116.3 90.7 145.7 91.3 174.8 89.7C204 88 233 84 262 80C291 76 320 72 349 73.2C378 74.3 407 80.7 436.2 84C465.3 87.3 494.7 87.7 523.8 87.8C553 88 582 88 611 84.5C640 81 669 74 698 72.5C727 71 756 75 785.2 77.2C814.3 79.3 843.7 79.7 872.8 83.3C902 87 931 94 945.5 97.5L960 101L960 151L945.5 151C931 151 902 151 872.8 151C843.7 151 814.3 151 785.2 151C756 151 727 151 698 151C669 151 640 151 611 151C582 151 553 151 523.8 151C494.7 151 465.3 151 436.2 151C407 151 378 151 349 151C320 151 291 151 262 151C233 151 204 151 174.8 151C145.7 151 116.3 151 87.2 151C58 151 29 151 14.5 151L0 151Z" fill="#f59d94"></path><path d="M0 84L14.5 84.2C29 84.3 58 84.7 87.2 89.3C116.3 94 145.7 103 174.8 103C204 103 233 94 262 92.5C291 91 320 97 349 97C378 97 407 91 436.2 89C465.3 87 494.7 89 523.8 93.7C553 98.3 582 105.7 611 109.3C640 113 669 113 698 109.8C727 106.7 756 100.3 785.2 100C814.3 99.7 843.7 105.3 872.8 106.3C902 107.3 931 103.7 945.5 101.8L960 100L960 151L945.5 151C931 151 902 151 872.8 151C843.7 151 814.3 151 785.2 151C756 151 727 151 698 151C669 151 640 151 611 151C582 151 553 151 523.8 151C494.7 151 465.3 151 436.2 151C407 151 378 151 349 151C320 151 291 151 262 151C233 151 204 151 174.8 151C145.7 151 116.3 151 87.2 151C58 151 29 151 14.5 151L0 151Z" fill="#f58d7d"></path><path d="M0 116L14.5 114.5C29 113 58 110 87.2 108.8C116.3 107.7 145.7 108.3 174.8 110C204 111.7 233 114.3 262 115.7C291 117 320 117 349 115.7C378 114.3 407 111.7 436.2 110.8C465.3 110 494.7 111 523.8 112.8C553 114.7 582 117.3 611 116.7C640 116 669 112 698 111.5C727 111 756 114 785.2 115.2C814.3 116.3 843.7 115.7 872.8 113.8C902 112 931 109 945.5 107.5L960 106L960 151L945.5 151C931 151 902 151 872.8 151C843.7 151 814.3 151 785.2 151C756 151 727 151 698 151C669 151 640 151 611 151C582 151 553 151 523.8 151C494.7 151 465.3 151 436.2 151C407 151 378 151 349 151C320 151 291 151 262 151C233 151 204 151 174.8 151C145.7 151 116.3 151 87.2 151C58 151 29 151 14.5 151L0 151Z" fill="#f27c66"></path><path d="M0 135L14.5 133.5C29 132 58 129 87.2 128.8C116.3 128.7 145.7 131.3 174.8 130.2C204 129 233 124 262 124.2C291 124.3 320 129.7 349 132.8C378 136 407 137 436.2 137C465.3 137 494.7 136 523.8 134C553 132 582 129 611 127.2C640 125.3 669 124.7 698 124.5C727 124.3 756 124.7 785.2 125.5C814.3 126.3 843.7 127.7 872.8 127.2C902 126.7 931 124.3 945.5 123.2L960 122L960 151L945.5 151C931 151 902 151 872.8 151C843.7 151 814.3 151 785.2 151C756 151 727 151 698 151C669 151 640 151 611 151C582 151 553 151 523.8 151C494.7 151 465.3 151 436.2 151C407 151 378 151 349 151C320 151 291 151 262 151C233 151 204 151 174.8 151C145.7 151 116.3 151 87.2 151C58 151 29 151 14.5 151L0 151Z" fill="#ee6c4d"></path></svg>