<svg id="visual" viewBox="0 0 960 150" width="960" height="150" xmlns="http://www.w3.org/2000/svg" xmlns:xlink="http://www.w3.org/1999/xlink" version="1.1"><rect x="0" y="0" width="960" height="150" fill="#ee6c4d"></rect><path d="M0 108L20 113.8C40 119.7 80 131.3 120 124.8C160 118.3 200 93.7 240 91.7C280 89.7 320 110.3 360 114.5C400 118.7 440 106.3 480 94.5C520 82.7 560 71.3 600 78.7C640 86 680 112 720 113.8C760 115.7 800 93.3 840 84.2C880 75 920 79 940 81L960 83L960 151L940 151C920 151 880 151 840 151C800 151 760 151 720 151C680 151 640 151 600 151C560 151 520 151 480 151C440 151 400 151 360 151C320 151 280 151 240 151C200 151 160 151 120 151C80 151 40 151 20 151L0 151Z" fill="#3d5a80" stroke-linecap="round" stroke-linejoin="miter"></path></svg>